<svg xmlns="http://www.w3.org/2000/svg" width="35" height="30" viewBox="0 0 35.4 29.5"><style type="text/css">  
	.st0{fill:#FFFFFF;}
</style><path class="st0" d="M29.7 22.4L29.7 22.4 29.7 22.4c3.3-1.1 5.8-5 5.7-8.8 -0.1-3-1.9-5-4.2-5.2 0-2.2-0.6-4.1-1.7-5.6 -1.5-2-3.6-3-6.2-2.8 -0.6 0-1.2 0.1-1.7 0.3 -0.9 0.2-1.7 0.6-2.6 1.1 -1.8 1-3.4 2.6-4.6 4.4 -0.5 0.8-1 1.7-1.4 2.7 -0.6-0.2-1.3-0.3-2.1-0.3 -0.4 0-0.9 0.1-1.4 0.2 -1.4 0.4-2.9 1.3-4.1 2.5 -0.7 0.7-1.3 1.5-1.8 2.3 -1.4 2.3-2 5-1.5 7.2 -0.4 0.4-0.7 0.8-1 1.2 -0.8 1.2-1.2 2.7-1.1 4 0.1 2.8 2.1 4.4 4.5 3.8 0.1 0 0.1 0 0.2 0l12.5-3.5L29.7 22.4zM4.3 20.9C4.3 20.9 4.3 20.9 4.3 20.9c-0.1-0.2-0.2-0.5-0.3-0.7 -0.9-2.2 0-5.6 2.4-7.9 1-1 2.1-1.6 3.2-1.9 1.7-0.5 3.3-0.1 4.2 1.3 0.4-2.5 1.6-4.7 3.2-6.5 0 0 0 0 0 0 1.8-1.7 3.8-2.7 5.6-2.9 1.4-0.2 2.7 0.1 3.8 0.8 0.3 0.2 0.6 0.5 0.9 0.8 1.2 1.2 1.8 3.1 1.7 5.2 0 0.5-0.1 0.9-0.1 1.4 0 0 1.2-0.1 1.2-0.1 1.6-0.1 2.8 0.8 3.3 2.5 0.1 0.4 0.2 0.8 0.2 1.3 0.1 2.7-1.7 5.6-4 6.3l-12.5 3.5L4.6 27.4c0 0-0.1 0-0.1 0 -1.1 0.3-2.1-0.2-2.5-1.2 -0.2-0.3-0.3-0.7-0.3-1.2C1.7 23.3 2.8 21.4 4.3 20.9z"/></svg>