<svg xmlns="http://www.w3.org/2000/svg" width="31" height="31" viewBox="0 0 31 30.6"><style type="text/css">  
	.st0{fill:#FFFFFF;}
</style><path class="st0" d="M11.1 0c1.1 0 2.2 0 3.3 0 1.1 0.1 0.6 3 0.7 4.6 0.1 1.1-0.6 1.7-1.6 1.8C12.2 6.5 11 6.6 9.7 6.8 8.9 6.8 8.6 7.1 8.5 8c-0.2 1.6 0.3 2.3 2 1.9 1-0.2 2.1-0.4 2.4 1.2 0.4 2.4 0.4 2.3 2.8 2 1-0.1 1.8-0.5 2.6-1.1 1.5-1.1 3-2.1 4.5-3.2C23.9 8 25 7.9 26.2 8.5c1.6 0.8 3.1 1.7 4.8 2.2 0 0.4 0 0.7 0 1.1 -1.8 1.4-3.6 2.8-5.4 4.2 -0.4 0.3-0.9 0.6-0.7 1.1 0.1 0.5 0.7 0.4 1.1 0.5 1.2 0.2 2.2 0.8 2.8 1.8 1.4 2.3 0.2 5.7-2.6 7.4 -2.6 1.6-5.2 1.1-6.6-1.4 -0.4-0.6-0.7-1.1-1.4-0.7 -1 0.5-2.6-0.3-2.9 1.3 -0.3 1.5-1.2 1.8-2.4 2.1 -3.6 0.8-7.3 1.7-10.9 2.5 -1.6 0.3-2.1-0.3-1.9-1.8 0.2-1.1 0-2.2 0-3.3 0.7-1.2 1.7-1.9 3.1-1.9C4.1 23.4 5 23.2 5.9 23c1.6-0.3 2.1-1.1 1.6-3.1 -0.3-1.4-1.4-0.5-2.1-0.4 -2.1 0.2-2.5-0.1-2.5-2.2 0-1.2 0-2.4 0-3.7 0-2.6 0.3-3.1 2.9-3.2 2-0.1 1.7-1.2 1.7-2.4C7.4 6.4 7.3 7.2 5.6 7.2c-0.9 0-1.6 0.2-2.7 0.2C1.5 7.5 0.7 7.4 0.1 6.3c-0.1-1.4 0-2.7 0-4C0 1.2 1.8 0.8 3.2 0.7 5.8 0.5 6.8 0.2 11.1 0zM8.5 20.7c0.1 1.4 0.2 2 1.7 1.5 1-0.3 2-0.4 3.1-0.5 1.2-0.2 2 0.1 1.9 1.5 -0.1 1.1 0.5 1.1 1.4 0.9 1.5-0.3 2.8-0.5 3.1-2.4 0.2-1.2 1.2-1.9 2-2.8 0.7-0.7 2.6-0.5 2.2-2 -0.3-1-1.8-1-2.8-1.5 -2.2-1.1-4.4-2.1-7-1.3 -0.8 0.2-1.2 0.5-1.1 1.3 0.3 2.2-0.8 3-2.8 3.1C8.7 18.7 8.2 18.7 8.5 20.7zM1.4 26.8c0 2.8 0 2.8 2.5 2.3 2.6-0.6 5.2-1.3 7.9-1.6 2.2-0.3 2.6-1.4 2.4-3.3 -0.1-1.3-0.3-1.7-1.7-1.4 -3 0.7-6 1.2-9 1.7C1.8 24.6 1 25.2 1.4 26.8zM4.1 14.8c0 3.8 0 3.8 3.6 3.3 4.2-0.7 4.2-0.7 4.2-4.8 0-2.6 0-2.6-2.5-2.3 -0.7 0.1-1.3 0.1-2 0.2C4.1 11.6 4.1 11.6 4.1 14.8zM18.2 13.1c2 0.9 3.8 1.6 5.5 2.4 0.5 0.2 1 0.1 1.4-0.2 1.7-1.2 3.3-2.5 5.2-3.9C28.3 10.6 26.6 9.8 25 9c-0.4-0.2-0.8-0.1-1.2 0.2C22 10.4 20.2 11.7 18.2 13.1z"/></svg>