<svg xmlns="http://www.w3.org/2000/svg" width="19" height="32" viewBox="0 0 18.7 32.2"><style type="text/css">  
	.st0{fill:#FFFFFF;}
</style><path class="st0" d="M18.6 1.2c-0.3-0.8-1.1-0.9-1.8-1.2 -0.6 0-1.2 0-1.9 0C10.9 0.8 6.8 1.7 2.7 2.4 1.5 2.7 0.6 3 0 4.1c0 9 0 18 0 27 0.3 0.7 0.7 1.1 1.4 1.1 0.6 0 1.3 0 1.9 0 4.7-0.8 9.2-2.2 13.7-3.3 0.7-0.2 1.3-0.6 1.6-1.4C18.7 18.8 18.6 10 18.6 1.2zM11.3 28.6c-0.8-0.1-1.4-0.4-1.3-1.2 0.1-1.2 1-1.7 2.1-1.8 0.7 0 1.2 0.3 1.2 1.1C13.2 27.9 12.3 28.3 11.3 28.6zM17.3 21.3c0 1-0.3 1.5-1.3 1.7 -3.8 0.8-7.6 1.7-11.4 2.6 -1 0.2-1.4 0.1-1.3-1.1 0.1-2.9 0-5.8 0-8.7 0-2.8 0-5.6 0-8.4 0-1 0.2-1.4 1.2-1.6C8.3 5 12.1 4.2 15.9 3.3c1.2-0.3 1.4 0 1.4 1.2C17.2 10.1 17.2 15.7 17.3 21.3z"/><path class="st0" d="M7.2 11.1c-0.4 0.1-0.7 0.3-0.7 0.7 0.1 0.5 0.5 0.6 0.9 0.5 0.2-0.1 0.5-0.1 0.6-0.1 3.2-0.2 5.7 1.5 6.2 4 0.1 0.6-0.1 1.6 0.9 1.4 0.9-0.2 0.7-1 0.6-1.7C15.1 12 11.1 10.3 7.2 11.1z"/><path class="st0" d="M8.3 13.2c-0.6 0.1-1.8-0.2-1.7 0.9 0 1 1.1 0.4 1.6 0.4 1.7 0.2 3.1 0.8 3.4 2.7 0.1 0.6 0.2 1.2 1 0.9 0.6-0.2 0.7-0.8 0.6-1.4C12.9 14.8 10.9 13.2 8.3 13.2z"/><path class="st0" d="M7.9 15.6c-0.6 0.1-1.3-0.1-1.4 0.8 -0.1 0.9 0.7 0.5 1.2 0.6 0.7 0.1 1.1 0.4 1.3 1.1 0.1 0.5 0.4 0.8 0.9 0.6 0.5-0.2 0.7-0.6 0.6-1.2C10.1 16.3 9.2 15.7 7.9 15.6z"/></svg>