<svg xmlns="http://www.w3.org/2000/svg" width="30" height="29" viewBox="0 0 29.8 28.7"><style type="text/css">  
	.st0{fill:#FFFFFF;}
</style><path class="st0" d="M7.3 13.4C7.3 13.4 7.3 13.4 7.3 13.4c0.1 0.1 0.3 0.1 0.4 0.1 0.1 0 0.1-0.1 0.1-0.1 0-0.5-0.1-1-0.4-1.4 -0.1-0.1-0.1-0.1-0.1-0.2 -0.1-0.4-0.3-0.7-0.6-0.9 -0.2-0.1-0.4-0.2-0.7-0.4 -0.1 0-0.1-0.1-0.2-0.2 -0.1-0.3-0.1-0.6-0.2-1C5.5 8.8 5.8 8.4 5.9 8c0 0 0-0.1 0.1-0.1 0.3 0 0.5 0 0.7 0.2 0.1 0.1 0.1 0.1 0.2 0 0.2-0.2 0.3-0.5 0.3-0.8 0.1-0.3 0.1-0.5 0.3-0.8 0.6-0.8 1.3-1.4 2.1-1.9 0.1 0 0.2-0.1 0.2-0.2 0 0 0-0.1 0.1-0.1 0 0 0.1 0 0.1 0.1 0 0.2 0.1 0.2 0.2 0.2 0.7 0 1.4 0 2.2 0 0.7 0 1.4 0 2.1 0 0.2 0 0.3 0.1 0.4 0.2 0.4 0.4 0.6 1 0.8 1.5 0.1 0.2 0.2 0.1 0.2 0.1 0.1 0 0.1 0 0.1-0.1 0-1-0.1-2.1-0.4-3.1 -0.4-1.3-1.3-2.3-2.6-2.8 -0.7-0.3-1.5-0.4-2.3-0.4C10.5 0 10 0 9.7 0.2 9.6 0.2 9.5 0.3 9.3 0.3 9 0.3 8.7 0.3 8.4 0.4 7.1 0.9 6 1.6 5.2 2.7c-1.4 2-1.7 4.1-0.8 6.4C5 10.7 6.1 12.1 7.3 13.4z"/><path class="st0" d="M20.6 14.4c-0.2-0.2-0.4-0.5-0.6-0.7 0-0.1-0.1-0.1-0.1-0.1 -0.7-0.2-1.5-0.4-2.2-0.5 -0.2 0-0.4-0.1-0.6 0 -0.5 0.3-1.1 0.3-1.7 0.4 -0.2 0-0.6-0.1-0.7 0.2 0 0 0 0 0 0 -0.1 0-0.1 0.1-0.1 0.1 0.2 1.5 0.3 2.9 0.2 4.4 0 1.3 0 2.7-0.4 3.9 0 0.1 0 0.2-0.1 0.2 -0.1 0-0.1-0.1-0.1-0.2 -0.2-0.5-0.4-1.1-0.5-1.6 -0.5-1.6-0.7-3.2-0.3-4.9 0-0.1 0-0.2-0.1-0.2 -0.3-0.2-0.6-0.3-0.9-0.6 -0.1-0.1-0.1 0-0.2 0 -0.3 0.1-0.6 0.2-0.8 0.4 -0.2 0.2-0.4 0.4-0.6 0.5 -0.1 0.1-0.1 0.2-0.1 0.3 0.1 0.4 0.3 0.6 0.6 0.9 0.6 0.4 0.8 1 0.8 1.8 0 0.3 0 0.6 0 1 0 0.5-0.1 1 0.1 1.5 0 0.1 0.1 0.2 0.1 0.4 0 0.4 0 0.8 0 1.2 0 0.1 0 0.1-0.1 0.1 -0.1 0-0.2 0-0.3-0.2 -0.3-0.5-0.6-1.1-0.9-1.6 -1.1-1.9-2.3-3.7-3.8-5.4 -0.2-0.2-0.4-0.3-0.6-0.2 -1.1 0.2-2.2 0.7-3.1 1.3 -1.3 0.9-2.4 1.8-2.9 3.4C0.3 20.6 0.2 20.8 0 21c0 1.8 0 3.6 0 5.4 0 0.2 0.2 0.3 0.4 0.4C0.5 26.9 0.7 27 0.9 27c0.4 0.1 0.8 0.1 1.2 0.1 0.7 0 1.3 0.3 1.9 0.7 0.4 0.3 0.8 0.7 1.4 0.9 1.6 0 3.1 0 4.7 0 0.1 0 0.1 0 0.2 0 0.1 0 0.2 0 0.3 0 0.1 0 0.1 0 0.2 0 0.1 0 0.1 0 0.2 0 0 0 0.1 0 0.1 0 0 0 0.1 0 0.1 0 0 0 0.1 0 0.1 0 0-0.1 0.1 0 0.1 0 0.8 0 1.6-0.1 2.4-0.3 1.3-0.2 2.5-0.6 3.6-1.4 0.9-0.7 1.7-1.5 1.9-2.6 0-0.2 0.1-0.4 0.2-0.6 0.2-0.5 0.5-0.9 1-1.1 0.5-0.2 0.7-0.6 0.8-1 0-0.2 0.1-0.4 0.1-0.6 0.1-1.8 0.2-3.6-0.2-5.4C21 15.2 20.9 14.8 20.6 14.4zM9 24.4c-0.2 0.6-0.7 0.8-1.3 0.9 -0.5 0.1-1 0.1-1.4 0.3 -0.2 0.1-0.4 0.2-0.6 0.2 -0.1 0-0.2 0.2-0.3 0.1 -0.2-0.1-0.4-0.2-0.6-0.3 0 0 0-0.1 0-0.1 0-0.2 0-0.4 0-0.7 0-0.4 0-0.9-0.2-1.3 0-0.1 0-0.1 0-0.2 0.1-0.4 0.4-0.7 0.8-0.9C5.9 22.2 6.4 22.2 7 22c0.5-0.1 1-0.2 1.4-0.5 0.1-0.1 0.4 0 0.5 0.2C9.2 22.7 9.3 23.5 9 24.4z"/><path class="st0" d="M29.7 3c-0.1-0.5-0.3-0.9-0.6-1.3 -0.2-0.2-0.4-0.4-0.5-0.6 -0.2-0.2-0.3-0.3-0.6-0.2 -0.1 0-0.2 0-0.2 0.1 0 0.3 0 0.5 0 0.8 0 0.3 0.2 0.5 0.2 0.7 0 0.4 0 0.7-0.1 1.1 0 0.1-0.1 0.1-0.1 0.2 -0.8 0.3-1.6 0.6-2.4 0.7 -0.1 0-0.2 0-0.2-0.2 0-0.5 0.1-1 0-1.5 0-0.2-0.1-0.4-0.1-0.6C24.9 2.1 24.8 2 24.6 2c-0.1 0-0.1 0.1-0.2 0.2 -0.3 0.5-0.5 1.1-0.9 1.5 -0.2 0.3-0.3 0.6-0.3 1 0.1 1.1 0.5 1.7 1.6 2 0.1 0 0.2 0.1 0.2 0.3 0.1 0.6 0.1 1.2 0.1 1.8 0 0.6-0.1 1.2-0.1 1.8 0 2.8 0 5.5 0 8.3 0 0.8 0.1 1.6 0 2.4 0 0.7-0.1 1.4-0.7 2 0 0 0 0.1 0 0.1 0 0.8 0.1 1.6 0.6 2.3 0 0.1 0.1 0.1 0.2 0.1 0.8 0 1.6-0.1 2.3-0.6 0.2-0.2 0.5-0.4 0.7-0.5 0.1 0 0.1-0.1 0.1-0.2 0.1-0.3 0.2-0.7 0.3-1 0.2-0.7 0.1-1.4-0.6-1.8 -0.2-0.1-0.3-0.3-0.3-0.6 0-0.3-0.1-0.5 0-0.8 0-0.4-0.1-2.4-0.1-2.5 0-0.9 0-1.9-0.1-2.8 -0.1-2-0.2-4 0-6.1 0.1-1.1 0.3-2.2 0.7-3.2 0.3-0.8 0.8-1.5 1.5-2C29.8 3.4 29.8 3.3 29.7 3 29.7 3.1 29.7 3 29.7 3zM27.9 22.7c0.1 0.1 0.1 0.1 0.1 0.2 0 0.5-0.2 0.9-0.4 1.3 -0.2 0.4-0.5 0.6-1 0.7 -0.5 0.1-1 0-1.4-0.3 -0.1 0-0.1-0.1-0.1-0.2 0-0.7 0.2-1.3 0.8-1.7 0.1-0.1 0.2-0.2 0.3-0.3 0.1-0.1 0.3-0.2 0.5-0.2C27.1 22.2 27.5 22.5 27.9 22.7z"/></svg>