<svg id="Layer_1" data-name="Layer 1" xmlns="http://www.w3.org/2000/svg" viewBox="0 0 166.15 166.3"><defs><style>.cls-1{fill:#dc4e41;}.cls-2{fill:#fff;}</style></defs><title>google-plus-icon-logo</title><path class="cls-1" d="M4.78.79C6.77,0,9,.12,11,0q72.72.08,145.44,0a8.82,8.82,0,0,1,9.62,9.6c.11,48.94,0,97.89,0,146.84a9,9,0,0,1-9.66,9.75q-73.41,0-146.83,0A9,9,0,0,1,0,156.49C0,107.55-.08,58.6,0,9.66A9.43,9.43,0,0,1,4.78.79ZM37.54,83.08c-.25,12.09,8.08,23.63,19.54,27.4,10.79,3.63,24.06.91,31.24-8.33C93.56,95.67,94.75,87,94.19,79c-9.24-.08-18.48-.06-27.71,0,0,3.29,0,6.57,0,9.87,5.53.15,11.07.08,16.6.19-1.4,4.79-4.58,9.24-9.41,11-9.33,4.11-21.22-1.26-24.16-11C46,79.55,51.78,68.24,61.35,65.52c5.94-2.09,12.05.26,17.13,3.35,2.57-2.41,5-5,7.35-7.58C80.06,56.46,72.64,53.5,65,54.15,50.06,54.33,37,68.13,37.54,83.08Zm74.63-12.45c0,2.75-.06,5.52-.07,8.27l-8.27.06V87.2l8.27.06c0,2.75,0,5.51.06,8.27,2.74,0,5.49,0,8.25,0,0-2.77,0-5.52.06-8.29l8.27,0V79l-8.27-.06c0-2.75,0-5.52-.06-8.27Z"/><path class="cls-2" d="M37.54,83.08C37,68.13,50.06,54.33,65,54.15c7.62-.65,15,2.31,20.81,7.14-2.37,2.6-4.77,5.17-7.35,7.58-5.08-3.09-11.19-5.44-17.13-3.35-9.57,2.73-15.37,14-11.83,23.4,2.93,9.78,14.83,15.15,24.16,11,4.83-1.73,8-6.18,9.41-11-5.53-.11-11.07,0-16.6-.19,0-3.29,0-6.57,0-9.87,9.23,0,18.47,0,27.71,0,.57,8.07-.62,16.7-5.87,23.18-7.18,9.24-20.45,12-31.24,8.33C45.62,106.71,37.29,95.17,37.54,83.08Z"/><path class="cls-2" d="M112.17,70.62h8.23c0,2.75,0,5.52.06,8.27l8.27.06V87.2l-8.27,0c0,2.77,0,5.52-.06,8.29-2.75,0-5.51,0-8.25,0,0-2.77,0-5.52-.06-8.27l-8.27-.06V79l8.27-.06C112.12,76.15,112.14,73.38,112.17,70.62Z"/></svg>